<svg id="Capa_1" enable-background="new 0 0 512 512" height="512" viewBox="0 0 512 512" width="512" xmlns="http://www.w3.org/2000/svg"><g><g fill="#fff2a0"><path d="m436 90v392c0 11.05-8.95 20-20 20s-20-8.95-20-20c0-378.463 0-58.43 0-392 0-11.05 8.95-20 20-20s20 8.95 20 20z"/><path d="m276 482c0 11.05-8.95 20-20 20s-20-8.95-20-20c0-70.626 0-382.5 0-452 0-11.05 8.95-20 20-20s20 8.95 20 20z"/><path d="m116 482c0 11.05-8.95 20-20 20s-20-8.95-20-20v-452c0-11.05 8.95-20 20-20s20 8.95 20 20z"/></g><g><circle cx="436" cy="286" r="10"/><path d="m446 90c0-16.542-13.458-30-30-30s-30 13.458-30 30v36h-100v-96c0-16.542-13.458-30-30-30s-30 13.458-30 30v36h-100v-36c0-16.542-13.458-30-30-30s-30 13.458-30 30v452c0 16.542 13.458 30 30 30s30-13.458 30-30v-36h100v36c0 16.542 13.458 30 30 30s30-13.458 30-30v-36h100v36c0 16.542 13.458 30 30 30s30-13.458 30-30v-151c0-5.523-4.478-10-10-10s-10 4.477-10 10v151c0 5.514-4.486 10-10 10s-10-4.486-10-10v-392c0-5.514 4.486-10 10-10s10 4.486 10 10v151c0 5.523 4.478 10 10 10s10-4.477 10-10zm-340 392c0 5.514-4.486 10-10 10s-10-4.486-10-10v-452c0-5.514 4.486-10 10-10s10 4.486 10 10zm120-56h-100v-40h100zm0-60h-100v-40h100zm0-60h-100v-40h100zm0-60h-100v-40h100zm0-60h-100v-40h100zm0-60h-100v-40h100zm40 356c0 5.514-4.486 10-10 10s-10-4.486-10-10v-452c0-5.514 4.486-10 10-10s10 4.486 10 10zm120-56h-100v-40h100zm0-60h-100v-40h100zm0-60h-100v-40h100zm0-60h-100v-40h100zm0-60h-100v-40h100z"/></g></g></svg>